<svg width="122" height="19" viewBox="0 0 122 19" fill="none" xmlns="http://www.w3.org/2000/svg">
<path d="M6.04492 9.30664H2.98828V14.4824H0V0.0878906H6.26953C7.71484 0.0878906 8.86719 0.458984 9.72656 1.20117C10.5859 1.94336 11.0156 3.09245 11.0156 4.64844C11.0156 6.34766 10.5859 7.54883 9.72656 8.25195C8.86719 8.95508 7.63997 9.30664 6.04492 9.30664ZM7.45117 6.30859C7.8418 5.96354 8.03711 5.41667 8.03711 4.66797C8.03711 3.91927 7.83854 3.38542 7.44141 3.06641C7.05078 2.7474 6.50065 2.58789 5.79102 2.58789H2.98828V6.82617H5.79102C6.50065 6.82617 7.05404 6.65365 7.45117 6.30859Z" fill="white"/>
<path d="M18.3984 6.40625C17.2786 6.40625 16.5267 6.77083 16.1426 7.5C15.9277 7.91016 15.8203 8.54167 15.8203 9.39453V14.4824H13.0176V3.83789H15.6738V5.69336C16.1035 4.98372 16.4779 4.4987 16.7969 4.23828C17.3177 3.80208 17.9948 3.58398 18.8281 3.58398C18.8802 3.58398 18.9225 3.58724 18.9551 3.59375C18.9941 3.59375 19.0755 3.59701 19.1992 3.60352V6.45508C19.0234 6.43555 18.8672 6.42253 18.7305 6.41602C18.5938 6.40951 18.4831 6.40625 18.3984 6.40625Z" fill="white"/>
<path d="M29.7168 5.18555C30.6152 6.31185 31.0645 7.64323 31.0645 9.17969C31.0645 10.7422 30.6152 12.0801 29.7168 13.1934C28.8184 14.3001 27.4544 14.8535 25.625 14.8535C23.7956 14.8535 22.4316 14.3001 21.5332 13.1934C20.6348 12.0801 20.1855 10.7422 20.1855 9.17969C20.1855 7.64323 20.6348 6.31185 21.5332 5.18555C22.4316 4.05924 23.7956 3.49609 25.625 3.49609C27.4544 3.49609 28.8184 4.05924 29.7168 5.18555ZM25.6152 5.84961C24.8014 5.84961 24.1732 6.13932 23.7305 6.71875C23.2943 7.29167 23.0762 8.11198 23.0762 9.17969C23.0762 10.2474 23.2943 11.071 23.7305 11.6504C24.1732 12.2298 24.8014 12.5195 25.6152 12.5195C26.429 12.5195 27.054 12.2298 27.4902 11.6504C27.9264 11.071 28.1445 10.2474 28.1445 9.17969C28.1445 8.11198 27.9264 7.29167 27.4902 6.71875C27.054 6.13932 26.429 5.84961 25.6152 5.84961Z" fill="white"/>
<path d="M41.9824 4.98047C42.8418 5.89844 43.2715 7.24609 43.2715 9.02344C43.2715 10.8984 42.8483 12.3275 42.002 13.3105C41.1621 14.2936 40.0781 14.7852 38.75 14.7852C37.9036 14.7852 37.2005 14.5736 36.6406 14.1504C36.3346 13.916 36.0352 13.5742 35.7422 13.125V18.6719H32.9883V3.83789H35.6543V5.41016C35.9538 4.94792 36.2728 4.58333 36.6113 4.31641C37.2298 3.84115 37.9655 3.60352 38.8184 3.60352C40.0618 3.60352 41.1165 4.0625 41.9824 4.98047ZM40.4004 9.16016C40.4004 8.33984 40.2116 7.61393 39.834 6.98242C39.4629 6.35091 38.8574 6.03516 38.0176 6.03516C37.0085 6.03516 36.3151 6.51367 35.9375 7.4707C35.7422 7.97852 35.6445 8.62305 35.6445 9.4043C35.6445 10.6413 35.9733 11.5104 36.6309 12.0117C37.0215 12.3047 37.4837 12.4512 38.0176 12.4512C38.7923 12.4512 39.3815 12.1517 39.7852 11.5527C40.1953 10.9538 40.4004 10.1562 40.4004 9.16016Z" fill="white"/>
<path d="M54.4043 11.3574C54.3327 11.9889 54.0039 12.6302 53.418 13.2812C52.5065 14.3164 51.2305 14.834 49.5898 14.834C48.2357 14.834 47.041 14.3978 46.0059 13.5254C44.9707 12.653 44.4531 11.2337 44.4531 9.26758C44.4531 7.42513 44.9186 6.01237 45.8496 5.0293C46.7871 4.04622 48.0013 3.55469 49.4922 3.55469C50.3776 3.55469 51.1751 3.7207 51.8848 4.05273C52.5944 4.38477 53.1803 4.90885 53.6426 5.625C54.0592 6.25651 54.3294 6.98893 54.4531 7.82227C54.5247 8.31055 54.554 9.01367 54.541 9.93164H47.2559C47.2949 10.9993 47.6302 11.748 48.2617 12.1777C48.6458 12.4447 49.1081 12.5781 49.6484 12.5781C50.2214 12.5781 50.6868 12.4154 51.0449 12.0898C51.2402 11.9141 51.4128 11.6699 51.5625 11.3574H54.4043ZM51.6504 8.0957C51.6048 7.36003 51.3802 6.80339 50.9766 6.42578C50.5794 6.04167 50.0846 5.84961 49.4922 5.84961C48.8477 5.84961 48.3464 6.05143 47.9883 6.45508C47.6367 6.85872 47.4154 7.4056 47.3242 8.0957H51.6504Z" fill="white"/>
<path d="M61.7773 6.40625C60.6576 6.40625 59.9056 6.77083 59.5215 7.5C59.3066 7.91016 59.1992 8.54167 59.1992 9.39453V14.4824H56.3965V3.83789H59.0527V5.69336C59.4824 4.98372 59.8568 4.4987 60.1758 4.23828C60.6966 3.80208 61.3737 3.58398 62.207 3.58398C62.2591 3.58398 62.3014 3.58724 62.334 3.59375C62.373 3.59375 62.4544 3.59701 62.5781 3.60352V6.45508C62.4023 6.43555 62.2461 6.42253 62.1094 6.41602C61.9727 6.40951 61.862 6.40625 61.7773 6.40625Z" fill="white"/>
<path d="M69.0918 12.5V14.5801L67.7734 14.6289C66.4583 14.6745 65.5599 14.4466 65.0781 13.9453C64.7656 13.6263 64.6094 13.1348 64.6094 12.4707V5.91797H63.125V3.93555H64.6094V0.966797H67.3633V3.93555H69.0918V5.91797H67.3633V11.543C67.3633 11.9792 67.4186 12.2526 67.5293 12.3633C67.64 12.4674 67.9785 12.5195 68.5449 12.5195C68.6296 12.5195 68.7174 12.5195 68.8086 12.5195C68.9062 12.513 69.0006 12.5065 69.0918 12.5Z" fill="white"/>
<path d="M73.7402 3.83789V14.4824H70.918V3.83789H73.7402ZM73.7402 0V2.56836H70.918V0H73.7402Z" fill="white"/>
<path d="M85.5566 11.3574C85.485 11.9889 85.1562 12.6302 84.5703 13.2812C83.6589 14.3164 82.3828 14.834 80.7422 14.834C79.388 14.834 78.1934 14.3978 77.1582 13.5254C76.123 12.653 75.6055 11.2337 75.6055 9.26758C75.6055 7.42513 76.071 6.01237 77.002 5.0293C77.9395 4.04622 79.1536 3.55469 80.6445 3.55469C81.5299 3.55469 82.3275 3.7207 83.0371 4.05273C83.7467 4.38477 84.3327 4.90885 84.7949 5.625C85.2116 6.25651 85.4818 6.98893 85.6055 7.82227C85.6771 8.31055 85.7064 9.01367 85.6934 9.93164H78.4082C78.4473 10.9993 78.7826 11.748 79.4141 12.1777C79.7982 12.4447 80.2604 12.5781 80.8008 12.5781C81.3737 12.5781 81.8392 12.4154 82.1973 12.0898C82.3926 11.9141 82.5651 11.6699 82.7148 11.3574H85.5566ZM82.8027 8.0957C82.7572 7.36003 82.5326 6.80339 82.1289 6.42578C81.7318 6.04167 81.237 5.84961 80.6445 5.84961C80 5.84961 79.4987 6.05143 79.1406 6.45508C78.7891 6.85872 78.5677 7.4056 78.4766 8.0957H82.8027Z" fill="white"/>
<path d="M94.9121 4.32617C95.7454 4.86003 96.224 5.77799 96.3477 7.08008H93.5645C93.5254 6.72201 93.4245 6.4388 93.2617 6.23047C92.9557 5.85286 92.4349 5.66406 91.6992 5.66406C91.0938 5.66406 90.6608 5.75846 90.4004 5.94727C90.1465 6.13607 90.0195 6.35742 90.0195 6.61133C90.0195 6.93034 90.1562 7.16146 90.4297 7.30469C90.7031 7.45443 91.6699 7.71159 93.3301 8.07617C94.4369 8.33659 95.2669 8.73047 95.8203 9.25781C96.3672 9.79167 96.6406 10.459 96.6406 11.2598C96.6406 12.3145 96.2467 13.1771 95.459 13.8477C94.6777 14.5117 93.4668 14.8438 91.8262 14.8438C90.153 14.8438 88.916 14.4922 88.1152 13.7891C87.321 13.0794 86.9238 12.1777 86.9238 11.084H89.7461C89.8047 11.5788 89.9316 11.9303 90.127 12.1387C90.472 12.5098 91.11 12.6953 92.041 12.6953C92.5879 12.6953 93.0208 12.6139 93.3398 12.4512C93.6654 12.2884 93.8281 12.0443 93.8281 11.7188C93.8281 11.4062 93.6979 11.1686 93.4375 11.0059C93.1771 10.8431 92.2103 10.5632 90.5371 10.166C89.3327 9.86654 88.4831 9.49219 87.9883 9.04297C87.4935 8.60026 87.2461 7.96224 87.2461 7.12891C87.2461 6.14583 87.6302 5.30273 88.3984 4.59961C89.1732 3.88997 90.2604 3.53516 91.6602 3.53516C92.9883 3.53516 94.0723 3.79883 94.9121 4.32617Z" fill="white"/>
<path d="M107.871 9.25781V11.4355H106.27V14.4824H103.545V11.4355H97.9395V9.00391L103.145 0.410156H106.27V9.25781H107.871ZM100 9.25781H103.545V3.14453L100 9.25781Z" fill="white"/>
<path d="M118.584 8.93555V0.0878906H121.641V8.93555C121.641 10.4655 121.403 11.6569 120.928 12.5098C120.042 14.0723 118.353 14.8535 115.859 14.8535C113.366 14.8535 111.673 14.0723 110.781 12.5098C110.306 11.6569 110.068 10.4655 110.068 8.93555V0.0878906H113.125V8.93555C113.125 9.92513 113.242 10.6478 113.477 11.1035C113.841 11.9108 114.635 12.3145 115.859 12.3145C117.077 12.3145 117.868 11.9108 118.232 11.1035C118.467 10.6478 118.584 9.92513 118.584 8.93555Z" fill="white"/>
</svg>
