<svg width="33" height="32" viewBox="0 0 33 32" fill="none" xmlns="http://www.w3.org/2000/svg">
<path d="M22.8672 2.6665H9.53385C5.85196 2.6665 2.86719 5.65127 2.86719 9.33317V22.6665C2.86719 26.3484 5.85196 29.3332 9.53385 29.3332H22.8672C26.5491 29.3332 29.5339 26.3484 29.5339 22.6665V9.33317C29.5339 5.65127 26.5491 2.6665 22.8672 2.6665Z" stroke="white" stroke-width="2" stroke-linecap="round" stroke-linejoin="round"/>
<path d="M21.5338 15.1599C21.6983 16.2696 21.5088 17.4029 20.9921 18.3986C20.4755 19.3943 19.658 20.2018 18.656 20.7061C17.6539 21.2105 16.5184 21.386 15.4108 21.2078C14.3033 21.0296 13.2801 20.5067 12.4869 19.7135C11.6937 18.9202 11.1708 17.8971 10.9925 16.7895C10.8143 15.682 10.9899 14.5464 11.4942 13.5444C11.9986 12.5424 12.806 11.7249 13.8018 11.2082C14.7975 10.6916 15.9308 10.502 17.0405 10.6666C18.1724 10.8344 19.2203 11.3619 20.0294 12.171C20.8385 12.9801 21.3659 14.028 21.5338 15.1599Z" stroke="white" stroke-width="2" stroke-linecap="round" stroke-linejoin="round"/>
<path d="M23.5332 8.6665H23.5465" stroke="white" stroke-width="2" stroke-linecap="round" stroke-linejoin="round"/>
</svg>
