<svg width="33" height="32" viewBox="0 0 33 32" fill="none" xmlns="http://www.w3.org/2000/svg">
<g clip-path="url(#clip0_723_651)">
<path d="M30.8665 4.00022C29.5897 4.90086 28.176 5.5897 26.6799 6.04022C25.8769 5.1169 24.8096 4.46248 23.6226 4.16546C22.4355 3.86844 21.1859 3.94315 20.0426 4.3795C18.8994 4.81584 17.9178 5.59276 17.2305 6.60518C16.5432 7.6176 16.1835 8.81667 16.1999 10.0402V11.3736C13.8567 11.4343 11.5349 10.9146 9.44121 9.86082C7.34753 8.807 5.54696 7.25174 4.19987 5.33356C4.19987 5.33356 -1.13346 17.3336 10.8665 22.6669C8.12057 24.5308 4.84941 25.4655 1.5332 25.3336C13.5332 32.0002 28.1999 25.3336 28.1999 10.0002C28.1986 9.62883 28.1629 9.25835 28.0932 8.89356C29.454 7.55155 30.4143 5.85717 30.8665 4.00022V4.00022Z" stroke="white" stroke-width="2" stroke-linecap="round" stroke-linejoin="round"/>
</g>
<defs>
<clipPath id="clip0_723_651">
<rect width="32" height="32" fill="white" transform="translate(0.200195)"/>
</clipPath>
</defs>
</svg>
