<svg width="122" height="20" viewBox="0 0 122 20" fill="none" xmlns="http://www.w3.org/2000/svg">
<path d="M6.04492 9.9707H2.98828V15.1465H0V0.751953H6.26953C7.71484 0.751953 8.86719 1.12305 9.72656 1.86523C10.5859 2.60742 11.0156 3.75651 11.0156 5.3125C11.0156 7.01172 10.5859 8.21289 9.72656 8.91602C8.86719 9.61914 7.63997 9.9707 6.04492 9.9707ZM7.45117 6.97266C7.8418 6.6276 8.03711 6.08073 8.03711 5.33203C8.03711 4.58333 7.83854 4.04948 7.44141 3.73047C7.05078 3.41146 6.50065 3.25195 5.79102 3.25195H2.98828V7.49023H5.79102C6.50065 7.49023 7.05404 7.31771 7.45117 6.97266Z" fill="black"/>
<path d="M18.3984 7.07031C17.2786 7.07031 16.5267 7.4349 16.1426 8.16406C15.9277 8.57422 15.8203 9.20573 15.8203 10.0586V15.1465H13.0176V4.50195H15.6738V6.35742C16.1035 5.64779 16.4779 5.16276 16.7969 4.90234C17.3177 4.46615 17.9948 4.24805 18.8281 4.24805C18.8802 4.24805 18.9225 4.2513 18.9551 4.25781C18.9941 4.25781 19.0755 4.26107 19.1992 4.26758V7.11914C19.0234 7.09961 18.8672 7.08659 18.7305 7.08008C18.5938 7.07357 18.4831 7.07031 18.3984 7.07031Z" fill="black"/>
<path d="M29.7168 5.84961C30.6152 6.97591 31.0645 8.30729 31.0645 9.84375C31.0645 11.4062 30.6152 12.7441 29.7168 13.8574C28.8184 14.9642 27.4544 15.5176 25.625 15.5176C23.7956 15.5176 22.4316 14.9642 21.5332 13.8574C20.6348 12.7441 20.1855 11.4062 20.1855 9.84375C20.1855 8.30729 20.6348 6.97591 21.5332 5.84961C22.4316 4.72331 23.7956 4.16016 25.625 4.16016C27.4544 4.16016 28.8184 4.72331 29.7168 5.84961ZM25.6152 6.51367C24.8014 6.51367 24.1732 6.80339 23.7305 7.38281C23.2943 7.95573 23.0762 8.77604 23.0762 9.84375C23.0762 10.9115 23.2943 11.735 23.7305 12.3145C24.1732 12.8939 24.8014 13.1836 25.6152 13.1836C26.429 13.1836 27.054 12.8939 27.4902 12.3145C27.9264 11.735 28.1445 10.9115 28.1445 9.84375C28.1445 8.77604 27.9264 7.95573 27.4902 7.38281C27.054 6.80339 26.429 6.51367 25.6152 6.51367Z" fill="black"/>
<path d="M41.9824 5.64453C42.8418 6.5625 43.2715 7.91016 43.2715 9.6875C43.2715 11.5625 42.8483 12.9915 42.002 13.9746C41.1621 14.9577 40.0781 15.4492 38.75 15.4492C37.9036 15.4492 37.2005 15.2376 36.6406 14.8145C36.3346 14.5801 36.0352 14.2383 35.7422 13.7891V19.3359H32.9883V4.50195H35.6543V6.07422C35.9538 5.61198 36.2728 5.2474 36.6113 4.98047C37.2298 4.50521 37.9655 4.26758 38.8184 4.26758C40.0618 4.26758 41.1165 4.72656 41.9824 5.64453ZM40.4004 9.82422C40.4004 9.00391 40.2116 8.27799 39.834 7.64648C39.4629 7.01497 38.8574 6.69922 38.0176 6.69922C37.0085 6.69922 36.3151 7.17773 35.9375 8.13477C35.7422 8.64258 35.6445 9.28711 35.6445 10.0684C35.6445 11.3053 35.9733 12.1745 36.6309 12.6758C37.0215 12.9688 37.4837 13.1152 38.0176 13.1152C38.7923 13.1152 39.3815 12.8158 39.7852 12.2168C40.1953 11.6178 40.4004 10.8203 40.4004 9.82422Z" fill="black"/>
<path d="M54.4043 12.0215C54.3327 12.653 54.0039 13.2943 53.418 13.9453C52.5065 14.9805 51.2305 15.498 49.5898 15.498C48.2357 15.498 47.041 15.0618 46.0059 14.1895C44.9707 13.3171 44.4531 11.8978 44.4531 9.93164C44.4531 8.08919 44.9186 6.67643 45.8496 5.69336C46.7871 4.71029 48.0013 4.21875 49.4922 4.21875C50.3776 4.21875 51.1751 4.38477 51.8848 4.7168C52.5944 5.04883 53.1803 5.57292 53.6426 6.28906C54.0592 6.92057 54.3294 7.65299 54.4531 8.48633C54.5247 8.97461 54.554 9.67773 54.541 10.5957H47.2559C47.2949 11.6634 47.6302 12.4121 48.2617 12.8418C48.6458 13.1087 49.1081 13.2422 49.6484 13.2422C50.2214 13.2422 50.6868 13.0794 51.0449 12.7539C51.2402 12.5781 51.4128 12.334 51.5625 12.0215H54.4043ZM51.6504 8.75977C51.6048 8.02409 51.3802 7.46745 50.9766 7.08984C50.5794 6.70573 50.0846 6.51367 49.4922 6.51367C48.8477 6.51367 48.3464 6.71549 47.9883 7.11914C47.6367 7.52279 47.4154 8.06966 47.3242 8.75977H51.6504Z" fill="black"/>
<path d="M61.7773 7.07031C60.6576 7.07031 59.9056 7.4349 59.5215 8.16406C59.3066 8.57422 59.1992 9.20573 59.1992 10.0586V15.1465H56.3965V4.50195H59.0527V6.35742C59.4824 5.64779 59.8568 5.16276 60.1758 4.90234C60.6966 4.46615 61.3737 4.24805 62.207 4.24805C62.2591 4.24805 62.3014 4.2513 62.334 4.25781C62.373 4.25781 62.4544 4.26107 62.5781 4.26758V7.11914C62.4023 7.09961 62.2461 7.08659 62.1094 7.08008C61.9727 7.07357 61.862 7.07031 61.7773 7.07031Z" fill="black"/>
<path d="M69.0918 13.1641V15.2441L67.7734 15.293C66.4583 15.3385 65.5599 15.1107 65.0781 14.6094C64.7656 14.2904 64.6094 13.7988 64.6094 13.1348V6.58203H63.125V4.59961H64.6094V1.63086H67.3633V4.59961H69.0918V6.58203H67.3633V12.207C67.3633 12.6432 67.4186 12.9167 67.5293 13.0273C67.64 13.1315 67.9785 13.1836 68.5449 13.1836C68.6296 13.1836 68.7174 13.1836 68.8086 13.1836C68.9062 13.1771 69.0006 13.1706 69.0918 13.1641Z" fill="black"/>
<path d="M73.7402 4.50195V15.1465H70.918V4.50195H73.7402ZM73.7402 0.664062V3.23242H70.918V0.664062H73.7402Z" fill="black"/>
<path d="M85.5566 12.0215C85.485 12.653 85.1562 13.2943 84.5703 13.9453C83.6589 14.9805 82.3828 15.498 80.7422 15.498C79.388 15.498 78.1934 15.0618 77.1582 14.1895C76.123 13.3171 75.6055 11.8978 75.6055 9.93164C75.6055 8.08919 76.071 6.67643 77.002 5.69336C77.9395 4.71029 79.1536 4.21875 80.6445 4.21875C81.5299 4.21875 82.3275 4.38477 83.0371 4.7168C83.7467 5.04883 84.3327 5.57292 84.7949 6.28906C85.2116 6.92057 85.4818 7.65299 85.6055 8.48633C85.6771 8.97461 85.7064 9.67773 85.6934 10.5957H78.4082C78.4473 11.6634 78.7826 12.4121 79.4141 12.8418C79.7982 13.1087 80.2604 13.2422 80.8008 13.2422C81.3737 13.2422 81.8392 13.0794 82.1973 12.7539C82.3926 12.5781 82.5651 12.334 82.7148 12.0215H85.5566ZM82.8027 8.75977C82.7572 8.02409 82.5326 7.46745 82.1289 7.08984C81.7318 6.70573 81.237 6.51367 80.6445 6.51367C80 6.51367 79.4987 6.71549 79.1406 7.11914C78.7891 7.52279 78.5677 8.06966 78.4766 8.75977H82.8027Z" fill="black"/>
<path d="M94.9121 4.99023C95.7454 5.52409 96.224 6.44206 96.3477 7.74414H93.5645C93.5254 7.38607 93.4245 7.10286 93.2617 6.89453C92.9557 6.51693 92.4349 6.32812 91.6992 6.32812C91.0938 6.32812 90.6608 6.42253 90.4004 6.61133C90.1465 6.80013 90.0195 7.02148 90.0195 7.27539C90.0195 7.5944 90.1562 7.82552 90.4297 7.96875C90.7031 8.11849 91.6699 8.37565 93.3301 8.74023C94.4369 9.00065 95.2669 9.39453 95.8203 9.92188C96.3672 10.4557 96.6406 11.123 96.6406 11.9238C96.6406 12.9785 96.2467 13.8411 95.459 14.5117C94.6777 15.1758 93.4668 15.5078 91.8262 15.5078C90.153 15.5078 88.916 15.1562 88.1152 14.4531C87.321 13.7435 86.9238 12.8418 86.9238 11.748H89.7461C89.8047 12.2428 89.9316 12.5944 90.127 12.8027C90.472 13.1738 91.11 13.3594 92.041 13.3594C92.5879 13.3594 93.0208 13.278 93.3398 13.1152C93.6654 12.9525 93.8281 12.7083 93.8281 12.3828C93.8281 12.0703 93.6979 11.8327 93.4375 11.6699C93.1771 11.5072 92.2103 11.2272 90.5371 10.8301C89.3327 10.5306 88.4831 10.1562 87.9883 9.70703C87.4935 9.26432 87.2461 8.6263 87.2461 7.79297C87.2461 6.8099 87.6302 5.9668 88.3984 5.26367C89.1732 4.55404 90.2604 4.19922 91.6602 4.19922C92.9883 4.19922 94.0723 4.46289 94.9121 4.99023Z" fill="black"/>
<path d="M107.871 9.92188V12.0996H106.27V15.1465H103.545V12.0996H97.9395V9.66797L103.145 1.07422H106.27V9.92188H107.871ZM100 9.92188H103.545V3.80859L100 9.92188Z" fill="black"/>
<path d="M118.584 9.59961V0.751953H121.641V9.59961C121.641 11.1296 121.403 12.321 120.928 13.1738C120.042 14.7363 118.353 15.5176 115.859 15.5176C113.366 15.5176 111.673 14.7363 110.781 13.1738C110.306 12.321 110.068 11.1296 110.068 9.59961V0.751953H113.125V9.59961C113.125 10.5892 113.242 11.3118 113.477 11.7676C113.841 12.5749 114.635 12.9785 115.859 12.9785C117.077 12.9785 117.868 12.5749 118.232 11.7676C118.467 11.3118 118.584 10.5892 118.584 9.59961Z" fill="black"/>
</svg>
